<?xml version="1.0" encoding="utf-8"?>
<!-- Generator: Adobe Illustrator 16.0.0, SVG Export Plug-In . SVG Version: 6.00 Build 0)  -->
<!DOCTYPE svg PUBLIC "-//W3C//DTD SVG 1.1//EN" "http://www.w3.org/Graphics/SVG/1.1/DTD/svg11.dtd">
<svg version="1.1" id="Calque_1" xmlns="http://www.w3.org/2000/svg" xmlns:xlink="http://www.w3.org/1999/xlink" x="0px" y="0px"
	 width="317.979px" height="57px" viewBox="0 0 317.979 57" enable-background="new 0 0 317.979 57" xml:space="preserve">
<g>
	<g>
		<path fill-rule="evenodd" clip-rule="evenodd" fill="#648A9D" d="M46.495,9.793h-41.6C2.447,9.793,0,12.177,0,14.567v29.48
			c0,2.395,2.447,4.896,4.895,4.896h2.448c0,0-0.501,5.681,1.318,7.353c0.01,0.01,0.028,0.008,0.041,0.008
			c0.901,0,1.715-0.355,2.308-0.929l8.569-6.432h26.916c2.449,0,4.896-2.501,4.896-4.896v-29.48
			C51.391,12.177,48.944,9.793,46.495,9.793"/>
		<g>
			<defs>
				<path id="SVGID_1_" d="M4.895,9.793C2.447,9.793,0,12.177,0,14.567v29.48c0,2.395,2.447,4.896,4.895,4.896h2.448
					c0,0-0.501,5.681,1.318,7.353c0.01,0.01,0.027,0.006,0.041,0.006c0.901,0,1.715-0.355,2.308-0.927l8.569-6.432h26.916
					c2.449,0,4.896-2.501,4.896-4.896v-29.48c0-2.39-2.447-4.773-4.896-4.773H4.895z"/>
			</defs>
			<clipPath id="SVGID_2_">
				<use xlink:href="#SVGID_1_"  overflow="visible"/>
			</clipPath>
			<g opacity="0.2" clip-path="url(#SVGID_2_)">
				<g>
					<defs>
						<rect id="SVGID_3_" x="17.13" y="4.894" width="51.389" height="47.658"/>
					</defs>
					<clipPath id="SVGID_4_">
						<use xlink:href="#SVGID_3_"  overflow="visible"/>
					</clipPath>
					<path clip-path="url(#SVGID_4_)" fill-rule="evenodd" clip-rule="evenodd" fill="#010202" d="M63.625,4.894h-41.6
						c-2.447,0-4.896,2.449-4.896,4.899v29.361c0,2.445,2.449,4.893,4.896,4.893h26.918l8.568,7.551
						c0.589,0.592,1.406,0.952,2.302,0.952c0.019,0,0.036,0.012,0.047,0c1.815-1.718,1.317-8.503,1.317-8.503h2.447
						c2.447,0,4.894-2.447,4.894-4.893V9.793C68.519,7.343,66.072,4.894,63.625,4.894"/>
				</g>
			</g>
		</g>
		<path fill-rule="evenodd" clip-rule="evenodd" fill="#FFFFFF" d="M68.519,0h-41.6c-2.447,0-4.893,2.447-4.893,4.894v29.367
			c0,2.443,2.446,4.894,4.893,4.894h26.918l8.57,7.549c0.588,0.595,1.404,0.954,2.304,0.954c0.017,0,0.033,0.014,0.042,0
			c1.819-1.718,1.319-8.503,1.319-8.503h2.447c2.448,0,4.895-2.45,4.895-4.894V4.894C73.414,2.447,70.967,0,68.519,0"/>
		<path fill-rule="evenodd" clip-rule="evenodd" fill="#5A5A5A" d="M35.485,17.13c-2.027,0-3.672,1.644-3.672,3.669
			c0,2.027,1.645,3.672,3.672,3.672c2.023,0,3.67-1.645,3.67-3.672C39.155,18.774,37.509,17.13,35.485,17.13 M47.717,17.13
			c-2.025,0-3.669,1.644-3.669,3.669c0,2.027,1.644,3.672,3.669,3.672c2.028,0,3.673-1.645,3.673-3.672
			C51.391,18.774,49.746,17.13,47.717,17.13 M59.955,17.13c-2.026,0-3.671,1.644-3.671,3.669c0,2.027,1.645,3.672,3.671,3.672
			c2.027,0,3.671-1.645,3.671-3.672C63.625,18.774,61.981,17.13,59.955,17.13"/>
	</g>
	<g>
		<path fill="#FFFFFF" d="M112.948,48.983l-5.696-22.287l-5.644,22.287h-7.348l-9.295-32.458h7.738l5.693,23.454l6.181-23.454h5.399
			l6.132,23.454l5.693-23.454h7.738l-9.246,32.458H112.948z"/>
		<path fill="#FFFFFF" d="M129.196,37.208c0-6.813,5.062-12.313,12.165-12.313c7.057,0,11.777,5.254,11.777,12.898v1.457h-17.47
			c0.438,2.872,2.773,5.257,6.764,5.257c1.997,0,4.722-0.827,6.229-2.287l2.775,4.087c-2.336,2.143-6.035,3.261-9.684,3.261
			C134.597,49.567,129.196,44.749,129.196,37.208z M141.361,29.958c-3.845,0-5.498,2.674-5.74,5.01h11.581
			C147.007,32.73,145.449,29.958,141.361,29.958z"/>
		<path fill="#FFFFFF" d="M157.613,48.983V16.526h6.177v11.97c1.849-2.433,4.479-3.601,7.252-3.601
			c5.984,0,10.416,4.671,10.416,12.313c0,7.883-4.479,12.359-10.416,12.359c-2.824,0-5.403-1.266-7.252-3.601v3.017H157.613z
			 M169.143,44.068c3.555,0,5.939-2.773,5.939-6.86c0-4.04-2.385-6.813-5.939-6.813c-2.043,0-4.282,1.169-5.353,2.725v8.323
			C164.86,42.951,167.1,44.068,169.143,44.068z"/>
		<path fill="#FFFFFF" d="M184.977,45.062l1.544-1.794c1.793,2.044,4.713,4.048,8.718,4.048c5.676,0,7.304-3.172,7.304-5.551
			c0-8.174-16.688-3.919-16.688-13.642c0-4.546,4.088-7.426,9.136-7.426c4.132,0,7.3,1.461,9.428,3.922l-1.583,1.751
			c-2.002-2.419-4.842-3.503-7.971-3.503c-3.713,0-6.505,2.126-6.505,5.131c0,7.136,16.688,3.213,16.688,13.601
			c0,3.587-2.382,7.883-9.891,7.883C190.566,49.482,187.105,47.606,184.977,45.062z"/>
		<path fill="#FFFFFF" d="M212.839,45.729V56.66h-2.172V28.834h2.172v3.169c1.418-2.043,4.005-3.671,7.007-3.671
			c5.384,0,9.013,4.088,9.013,10.555c0,6.425-3.629,10.596-9.013,10.596C217.01,49.482,214.466,48.022,212.839,45.729z
			 M226.521,38.887c0-4.88-2.543-8.594-7.05-8.594c-2.797,0-5.467,1.669-6.632,3.589v9.971c1.165,1.919,3.835,3.672,6.632,3.672
			C223.978,47.524,226.521,43.768,226.521,38.887z"/>
		<path fill="#FFFFFF" d="M233.188,38.887c0-5.84,4.089-10.555,9.683-10.555c6.129,0,9.511,4.84,9.511,10.681v0.584h-16.855
			c0.211,4.38,3.129,8.01,7.884,8.01c2.545,0,4.884-0.96,6.594-2.797l1.125,1.422c-2.003,2.084-4.546,3.251-7.883,3.251
			C237.359,49.482,233.188,45.103,233.188,38.887z M242.825,30.21c-4.755,0-7.133,4.172-7.3,7.677h14.643
			C250.129,34.465,247.873,30.21,242.825,30.21z"/>
		<path fill="#FFFFFF" d="M256.835,38.887c0-5.84,4.088-10.555,9.678-10.555c6.134,0,9.511,4.84,9.511,10.681v0.584H259.17
			c0.209,4.38,3.128,8.01,7.884,8.01c2.548,0,4.882-0.96,6.593-2.797l1.13,1.422c-2.003,2.084-4.552,3.251-7.889,3.251
			C261.007,49.482,256.835,45.103,256.835,38.887z M266.474,30.21c-4.76,0-7.138,4.172-7.304,7.677h14.646
			C273.771,34.465,271.521,30.21,266.474,30.21z"/>
		<path fill="#FFFFFF" d="M280.482,38.887c0-5.883,3.835-10.555,9.76-10.555c3.508,0,5.51,1.375,7.134,3.42l-1.5,1.336
			c-1.458-2.004-3.295-2.795-5.507-2.795c-4.716,0-7.592,3.754-7.592,8.594s2.876,8.638,7.592,8.638
			c2.212,0,4.049-0.837,5.507-2.839l1.5,1.336c-1.624,2.086-3.626,3.461-7.134,3.461C284.317,49.482,280.482,44.769,280.482,38.887z
			"/>
		<path fill="#FFFFFF" d="M315.81,48.983V35.257c0-3.88-1.959-4.964-4.881-4.964c-2.584,0-5.254,1.628-6.55,3.461v15.229h-2.168
			V21.157h2.168V31.88c1.462-1.756,4.341-3.548,7.26-3.548c4.088,0,6.34,1.919,6.34,6.467v14.185H315.81z"/>
	</g>
</g>
</svg>
