<?xml version="1.0" encoding="utf-8"?>
<!-- Generator: Adobe Illustrator 16.0.0, SVG Export Plug-In . SVG Version: 6.00 Build 0)  -->
<!DOCTYPE svg PUBLIC "-//W3C//DTD SVG 1.1//EN" "http://www.w3.org/Graphics/SVG/1.1/DTD/svg11.dtd">
<svg version="1.1" id="Calque_1" xmlns="http://www.w3.org/2000/svg" xmlns:xlink="http://www.w3.org/1999/xlink" x="0px" y="0px"
	 width="158.5px" height="28.996px" viewBox="-0.5 0 158.5 28.996" enable-background="new -0.5 0 158.5 28.996"
	 xml:space="preserve">
<path fill="#818181" d="M22.991,5.82H2.42C1.21,5.82,0,6.999,0,8.181v14.578c0,1.184,1.21,2.42,2.42,2.42h1.21
	c0,0-0.248,2.811,0.652,3.636c0.005,0.005,0.014,0.004,0.02,0.004c0.446,0,0.848-0.176,1.142-0.459l4.237-3.181h13.31
	c1.211,0,2.421-1.236,2.421-2.42V8.181C25.412,6.999,24.202,5.82,22.991,5.82"/>
<g>
	<g>
		<defs>
			<path id="SVGID_1_" d="M2.42,5.82C1.21,5.82,0,6.999,0,8.181v14.578c0,1.184,1.21,2.42,2.42,2.42h1.21
				c0,0-0.248,2.811,0.652,3.636c0.005,0.005,0.013,0.003,0.02,0.003c0.446,0,0.848-0.176,1.142-0.458l4.237-3.181h13.31
				c1.211,0,2.421-1.236,2.421-2.42V8.181c0-1.182-1.21-2.36-2.421-2.36L2.42,5.82L2.42,5.82z"/>
		</defs>
		<clipPath id="SVGID_2_">
			<use xlink:href="#SVGID_1_"  overflow="visible"/>
		</clipPath>
		<g clip-path="url(#SVGID_2_)">
			<g opacity="0.2">
				<g>
					<defs>
						<rect id="SVGID_3_" x="8.471" y="3.397" width="25.411" height="23.565"/>
					</defs>
					<clipPath id="SVGID_4_">
						<use xlink:href="#SVGID_3_"  overflow="visible"/>
					</clipPath>
					<path clip-path="url(#SVGID_4_)" fill="#020202" d="M31.462,3.397h-20.57c-1.21,0-2.421,1.211-2.421,2.423v14.52
						c0,1.209,1.211,2.42,2.421,2.42h13.311l4.237,3.732c0.292,0.293,0.695,0.471,1.139,0.471c0.009,0,0.018,0.006,0.023,0
						c0.898-0.85,0.651-4.203,0.651-4.203h1.21c1.21,0,2.42-1.211,2.42-2.42V5.82C33.882,4.608,32.672,3.397,31.462,3.397"/>
				</g>
			</g>
		</g>
		<path clip-path="url(#SVGID_2_)" fill="#FFFFFF" d="M33.882,0.978H13.311c-1.21,0-2.419,1.21-2.419,2.42v14.521
			c0,1.207,1.209,2.42,2.419,2.42h13.311l4.238,3.732c0.291,0.293,0.694,0.473,1.139,0.473c0.008,0,0.016,0.006,0.021,0
			c0.899-0.851,0.652-4.205,0.652-4.205h1.21c1.21,0,2.42-1.213,2.42-2.42V3.397C36.302,2.188,35.092,0.978,33.882,0.978"/>
		<path clip-path="url(#SVGID_2_)" fill="#5A5A5A" d="M17.547,9.448c-1.002,0-1.815,0.812-1.815,1.814
			c0,1.002,0.813,1.815,1.815,1.815c1.001,0,1.815-0.813,1.815-1.815C19.362,10.26,18.548,9.448,17.547,9.448 M23.596,9.448
			c-1.001,0-1.814,0.812-1.814,1.814c0,1.002,0.813,1.815,1.814,1.815c1.003,0,1.816-0.813,1.816-1.815
			C25.412,10.26,24.599,9.448,23.596,9.448 M29.647,9.448c-1.002,0-1.815,0.812-1.815,1.814c0,1.002,0.813,1.815,1.815,1.815
			s1.815-0.813,1.815-1.815C31.462,10.26,30.649,9.448,29.647,9.448"/>
	</g>
	<g>
		<path fill="#FFFFFF" d="M55.851,25.199l-2.815-11.021l-2.792,11.021h-3.633l-4.596-16.05h3.826l2.815,11.599l3.056-11.599h2.671
			l3.032,11.599L60.23,9.149h3.826l-4.572,16.05H55.851z"/>
		<path fill="#FFFFFF" d="M63.886,19.376c0-3.369,2.502-6.088,6.016-6.088c3.489,0,5.823,2.599,5.823,6.377v0.722h-8.639
			c0.217,1.42,1.372,2.599,3.345,2.599c0.987,0,2.334-0.408,3.08-1.131l1.372,2.021c-1.155,1.059-2.984,1.611-4.789,1.611
			C66.557,25.488,63.886,23.105,63.886,19.376z M69.901,15.791c-1.901,0-2.719,1.324-2.839,2.479h5.727
			C72.693,17.162,71.923,15.791,69.901,15.791z"/>
		<path fill="#FFFFFF" d="M77.937,25.199V9.149h3.055v5.919c0.914-1.203,2.215-1.78,3.586-1.78c2.959,0,5.15,2.31,5.15,6.088
			c0,3.897-2.215,6.111-5.15,6.111c-1.396,0-2.672-0.626-3.586-1.781v1.492H77.937z M83.639,22.769c1.758,0,2.938-1.371,2.938-3.393
			c0-1.998-1.181-3.369-2.938-3.369c-1.01,0-2.117,0.578-2.646,1.348v4.115C81.521,22.216,82.629,22.769,83.639,22.769z"/>
		<path fill="#FFFFFF" d="M91.469,23.259l0.764-0.887c0.888,1.012,2.33,2.002,4.312,2.002c2.808,0,3.61-1.568,3.61-2.744
			c0-4.043-8.252-1.938-8.252-6.747c0-2.248,2.021-3.672,4.519-3.672c2.043,0,3.608,0.723,4.662,1.939l-0.783,0.866
			c-0.989-1.196-2.396-1.732-3.94-1.732c-1.836,0-3.217,1.052-3.217,2.537c0,3.528,8.252,1.59,8.252,6.727
			c0,1.773-1.179,3.897-4.892,3.897C94.232,25.446,92.521,24.519,91.469,23.259z"/>
		<path fill="#FFFFFF" d="M105.246,23.589v5.406h-1.074V15.235h1.074v1.567c0.701-1.012,1.98-1.815,3.465-1.815
			c2.662,0,4.457,2.021,4.457,5.22c0,3.178-1.795,5.239-4.457,5.239C107.309,25.446,106.051,24.725,105.246,23.589z M112.012,20.207
			c0-2.414-1.258-4.25-3.486-4.25c-1.383,0-2.702,0.826-3.278,1.774v4.931c0.576,0.948,1.896,1.815,3.278,1.815
			C110.754,24.478,112.012,22.621,112.012,20.207z"/>
		<path fill="#FFFFFF" d="M115.309,20.207c0-2.889,2.021-5.22,4.787-5.22c3.031,0,4.703,2.394,4.703,5.281v0.289h-8.334
			c0.104,2.166,1.547,3.961,3.898,3.961c1.258,0,2.414-0.476,3.26-1.384l0.557,0.703c-0.99,1.031-2.248,1.607-3.897,1.607
			C117.371,25.446,115.309,23.28,115.309,20.207z M120.074,15.916c-2.352,0-3.527,2.062-3.609,3.797h7.24
			C123.686,18.021,122.57,15.916,120.074,15.916z"/>
		<path fill="#FFFFFF" d="M127.002,20.207c0-2.889,2.021-5.22,4.785-5.22c3.033,0,4.703,2.394,4.703,5.281v0.289h-8.334
			c0.104,2.166,1.547,3.961,3.898,3.961c1.26,0,2.413-0.476,3.26-1.384l0.559,0.703c-0.99,1.031-2.25,1.607-3.9,1.607
			C129.064,25.446,127.002,23.28,127.002,20.207z M131.768,15.916c-2.354,0-3.529,2.062-3.61,3.797h7.241
			C135.377,18.021,134.264,15.916,131.768,15.916z"/>
		<path fill="#FFFFFF" d="M138.695,20.207c0-2.908,1.896-5.22,4.826-5.22c1.733,0,2.725,0.681,3.526,1.691l-0.741,0.659
			c-0.722-0.989-1.63-1.381-2.724-1.381c-2.332,0-3.754,1.855-3.754,4.25c0,2.393,1.422,4.271,3.754,4.271
			c1.094,0,2.002-0.413,2.724-1.403l0.741,0.66c-0.803,1.031-1.793,1.712-3.526,1.712C140.592,25.446,138.695,23.115,138.695,20.207
			z"/>
		<path fill="#FFFFFF" d="M156.164,25.199v-6.787c0-1.918-0.969-2.455-2.414-2.455c-1.277,0-2.598,0.806-3.238,1.713v7.529h-1.072
			v-13.76h1.072v5.303c0.723-0.867,2.146-1.755,3.59-1.755c2.021,0,3.135,0.949,3.135,3.197v7.015H156.164z"/>
	</g>
</g>
<g>
	<path fill-rule="evenodd" clip-rule="evenodd" fill="#818181" d="M22.666,5.821H1.938c-1.219,0-2.438,1.19-2.438,2.38V22.89
		c0,1.19,1.219,2.438,2.438,2.438h1.219c0,0-0.249,2.831,0.657,3.664c0.005,0.005,0.014,0.003,0.021,0.003
		c0.448,0,0.854-0.177,1.148-0.465l4.27-3.202h13.412c1.219,0,2.438-1.248,2.438-2.438V8.201
		C25.104,7.011,23.885,5.821,22.666,5.821"/>
	<g>
		<defs>
			<path id="SVGID_5_" d="M1.938,5.821c-1.219,0-2.438,1.19-2.438,2.38V22.89c0,1.19,1.219,2.438,2.438,2.438h1.219
				c0,0-0.249,2.831,0.657,3.664c0.005,0.005,0.013,0,0.021,0c0.448,0,0.854-0.174,1.149-0.462l4.269-3.202h13.412
				c1.219,0,2.438-1.248,2.438-2.438V8.201c0-1.19-1.219-2.38-2.438-2.38H1.938z"/>
		</defs>
		<clipPath id="SVGID_6_">
			<use xlink:href="#SVGID_5_"  overflow="visible"/>
		</clipPath>
		<g opacity="0.2" clip-path="url(#SVGID_6_)">
			<g>
				<defs>
					<rect id="SVGID_7_" x="8.035" y="3.382" width="25.604" height="23.746"/>
				</defs>
				<clipPath id="SVGID_8_">
					<use xlink:href="#SVGID_7_"  overflow="visible"/>
				</clipPath>
				<path clip-path="url(#SVGID_8_)" fill-rule="evenodd" clip-rule="evenodd" fill="#010101" d="M31.201,3.382H10.473
					c-1.219,0-2.438,1.219-2.438,2.438v14.631c0,1.219,1.219,2.438,2.438,2.438h13.412l4.27,3.762
					c0.294,0.296,0.7,0.477,1.148,0.477c0.008,0,0.017,0.003,0.021-0.002c0.906-0.853,0.657-4.236,0.657-4.236h1.219
					c1.219,0,2.438-1.22,2.438-2.438V5.821C33.639,4.602,32.42,3.382,31.201,3.382"/>
			</g>
		</g>
	</g>
	<path fill-rule="evenodd" clip-rule="evenodd" fill="#FFFFFF" d="M33.639,0.944H12.912c-1.219,0-2.438,1.219-2.438,2.438v14.63
		c0,1.22,1.219,2.439,2.438,2.439h13.412l4.27,3.762c0.294,0.296,0.7,0.477,1.148,0.477c0.008,0,0.017,0.003,0.021-0.002
		c0.906-0.853,0.657-4.236,0.657-4.236h1.219c1.219,0,2.438-1.22,2.438-2.439V3.382C36.078,2.163,34.858,0.944,33.639,0.944"/>
	<path fill-rule="evenodd" clip-rule="evenodd" fill="#5A5A5A" d="M17.179,9.479c-1.01,0-1.829,0.819-1.829,1.829
		s0.819,1.829,1.829,1.829s1.829-0.819,1.829-1.829S18.189,9.479,17.179,9.479 M23.275,9.479c-1.01,0-1.829,0.819-1.829,1.829
		s0.819,1.829,1.829,1.829s1.829-0.819,1.829-1.829S24.285,9.479,23.275,9.479 M29.372,9.479c-1.01,0-1.829,0.819-1.829,1.829
		s0.819,1.829,1.829,1.829s1.829-0.819,1.829-1.829S30.381,9.479,29.372,9.479"/>
</g>
</svg>
