<?xml version="1.0" encoding="utf-8"?>
<!-- Generator: Adobe Illustrator 16.0.0, SVG Export Plug-In . SVG Version: 6.00 Build 0)  -->
<!DOCTYPE svg PUBLIC "-//W3C//DTD SVG 1.1//EN" "http://www.w3.org/Graphics/SVG/1.1/DTD/svg11.dtd">
<svg version="1.1" id="Calque_1" xmlns="http://www.w3.org/2000/svg" xmlns:xlink="http://www.w3.org/1999/xlink" x="0px" y="0px"
	 width="158px" height="28.995px" viewBox="0 0 158 28.995" enable-background="new 0 0 158 28.995" xml:space="preserve">
<g>
	<g>
		<path fill-rule="evenodd" clip-rule="evenodd" fill="#648A9D" d="M22.991,5.82H2.42C1.21,5.82,0,6.999,0,8.181v14.578
			c0,1.184,1.21,2.42,2.42,2.42h1.21c0,0-0.248,2.81,0.652,3.636c0.005,0.005,0.014,0.004,0.02,0.004
			c0.446,0,0.848-0.176,1.142-0.459l4.237-3.181h13.31c1.211,0,2.421-1.236,2.421-2.42V8.181C25.412,6.999,24.202,5.82,22.991,5.82"
			/>
		<g>
			<defs>
				<path id="SVGID_1_" d="M2.42,5.82C1.21,5.82,0,6.999,0,8.181v14.578c0,1.184,1.21,2.42,2.42,2.42h1.21
					c0,0-0.248,2.81,0.652,3.636c0.005,0.005,0.013,0.003,0.02,0.003c0.446,0,0.848-0.176,1.142-0.458l4.237-3.181h13.31
					c1.211,0,2.421-1.236,2.421-2.42V8.181c0-1.182-1.21-2.36-2.421-2.36H2.42z"/>
			</defs>
			<clipPath id="SVGID_2_">
				<use xlink:href="#SVGID_1_"  overflow="visible"/>
			</clipPath>
			<g opacity="0.2" clip-path="url(#SVGID_2_)">
				<g>
					<defs>
						<rect id="SVGID_3_" x="8.471" y="3.397" width="25.411" height="23.566"/>
					</defs>
					<clipPath id="SVGID_4_">
						<use xlink:href="#SVGID_3_"  overflow="visible"/>
					</clipPath>
					<path clip-path="url(#SVGID_4_)" fill-rule="evenodd" clip-rule="evenodd" fill="#010202" d="M31.462,3.397h-20.57
						c-1.21,0-2.421,1.211-2.421,2.423v14.519c0,1.209,1.211,2.42,2.421,2.42h13.311l4.237,3.733
						c0.292,0.293,0.695,0.471,1.139,0.471c0.009,0,0.018,0.006,0.023,0c0.898-0.85,0.651-4.204,0.651-4.204h1.21
						c1.21,0,2.42-1.211,2.42-2.42V5.82C33.882,4.608,32.672,3.397,31.462,3.397"/>
				</g>
			</g>
		</g>
		<path fill-rule="evenodd" clip-rule="evenodd" fill="#FFFFFF" d="M33.882,0.978H13.311c-1.21,0-2.419,1.21-2.419,2.42v14.521
			c0,1.208,1.209,2.42,2.419,2.42h13.311l4.238,3.733c0.291,0.293,0.694,0.472,1.139,0.472c0.008,0,0.016,0.006,0.021,0
			c0.899-0.85,0.652-4.205,0.652-4.205h1.21c1.21,0,2.42-1.212,2.42-2.42V3.397C36.302,2.188,35.092,0.978,33.882,0.978"/>
		<path fill-rule="evenodd" clip-rule="evenodd" fill="#5A5A5A" d="M17.547,9.448c-1.002,0-1.815,0.812-1.815,1.814
			s0.813,1.815,1.815,1.815c1.001,0,1.815-0.813,1.815-1.815S18.548,9.448,17.547,9.448 M23.596,9.448
			c-1.001,0-1.814,0.812-1.814,1.814s0.813,1.815,1.814,1.815c1.003,0,1.816-0.813,1.816-1.815S24.599,9.448,23.596,9.448
			 M29.647,9.448c-1.002,0-1.815,0.812-1.815,1.814s0.813,1.815,1.815,1.815c1.002,0,1.815-0.813,1.815-1.815
			S30.649,9.448,29.647,9.448"/>
	</g>
	<g>
		<path fill="#FFFFFF" d="M55.851,25.199l-2.815-11.021l-2.792,11.021h-3.633l-4.596-16.05h3.826l2.815,11.598l3.056-11.598h2.671
			l3.032,11.598L60.23,9.149h3.826l-4.572,16.05H55.851z"/>
		<path fill="#FFFFFF" d="M63.886,19.376c0-3.369,2.502-6.088,6.016-6.088c3.489,0,5.823,2.599,5.823,6.377v0.722h-8.639
			c0.217,1.42,1.372,2.599,3.345,2.599c0.987,0,2.334-0.409,3.08-1.131l1.372,2.021c-1.155,1.059-2.984,1.612-4.789,1.612
			C66.557,25.488,63.886,23.105,63.886,19.376z M69.901,15.791c-1.901,0-2.719,1.323-2.839,2.478h5.727
			C72.693,17.162,71.923,15.791,69.901,15.791z"/>
		<path fill="#FFFFFF" d="M77.937,25.199V9.149h3.055v5.919c0.914-1.203,2.215-1.78,3.586-1.78c2.959,0,5.15,2.31,5.15,6.088
			c0,3.898-2.215,6.112-5.15,6.112c-1.396,0-2.672-0.626-3.586-1.781v1.492H77.937z M83.639,22.769c1.758,0,2.938-1.371,2.938-3.393
			c0-1.997-1.18-3.369-2.938-3.369c-1.01,0-2.117,0.578-2.646,1.348v4.115C81.521,22.216,82.629,22.769,83.639,22.769z"/>
		<path fill="#FFFFFF" d="M91.469,23.26l0.764-0.887c0.887,1.011,2.33,2.001,4.311,2.001c2.807,0,3.611-1.568,3.611-2.744
			c0-4.043-8.252-1.938-8.252-6.746c0-2.248,2.021-3.672,4.518-3.672c2.043,0,3.609,0.723,4.662,1.939l-0.783,0.866
			c-0.99-1.196-2.395-1.732-3.941-1.732c-1.836,0-3.217,1.052-3.217,2.537c0,3.528,8.252,1.589,8.252,6.726
			c0,1.774-1.178,3.898-4.891,3.898C94.232,25.446,92.521,24.519,91.469,23.26z"/>
		<path fill="#FFFFFF" d="M105.246,23.59v5.405h-1.074v-13.76h1.074v1.567c0.701-1.011,1.98-1.815,3.465-1.815
			c2.662,0,4.457,2.021,4.457,5.22c0,3.177-1.795,5.239-4.457,5.239C107.309,25.446,106.051,24.725,105.246,23.59z M112.012,20.207
			c0-2.414-1.258-4.25-3.486-4.25c-1.383,0-2.703,0.825-3.279,1.774v4.931c0.576,0.948,1.896,1.815,3.279,1.815
			C110.754,24.478,112.012,22.62,112.012,20.207z"/>
		<path fill="#FFFFFF" d="M115.309,20.207c0-2.889,2.021-5.22,4.787-5.22c3.031,0,4.703,2.394,4.703,5.281v0.289h-8.334
			c0.104,2.166,1.547,3.961,3.898,3.961c1.258,0,2.414-0.475,3.26-1.383l0.557,0.702c-0.99,1.031-2.248,1.608-3.898,1.608
			C117.371,25.446,115.309,23.28,115.309,20.207z M120.074,15.916c-2.352,0-3.527,2.062-3.609,3.796h7.24
			C123.686,18.021,122.57,15.916,120.074,15.916z"/>
		<path fill="#FFFFFF" d="M127.002,20.207c0-2.889,2.021-5.22,4.785-5.22c3.033,0,4.703,2.394,4.703,5.281v0.289h-8.334
			c0.104,2.166,1.547,3.961,3.898,3.961c1.26,0,2.414-0.475,3.26-1.383l0.559,0.702c-0.99,1.031-2.25,1.608-3.9,1.608
			C129.064,25.446,127.002,23.28,127.002,20.207z M131.768,15.916c-2.354,0-3.529,2.062-3.611,3.796h7.242
			C135.377,18.021,134.264,15.916,131.768,15.916z"/>
		<path fill="#FFFFFF" d="M138.695,20.207c0-2.909,1.896-5.22,4.826-5.22c1.734,0,2.725,0.681,3.527,1.691l-0.742,0.66
			c-0.721-0.99-1.629-1.382-2.723-1.382c-2.332,0-3.754,1.856-3.754,4.25c0,2.393,1.422,4.271,3.754,4.271
			c1.094,0,2.002-0.413,2.723-1.403l0.742,0.66c-0.803,1.031-1.793,1.712-3.527,1.712C140.592,25.446,138.695,23.115,138.695,20.207
			z"/>
		<path fill="#FFFFFF" d="M156.164,25.199v-6.787c0-1.919-0.969-2.455-2.414-2.455c-1.277,0-2.598,0.805-3.238,1.712v7.53h-1.072
			v-13.76h1.072v5.302c0.723-0.867,2.146-1.754,3.59-1.754c2.021,0,3.135,0.949,3.135,3.197v7.015H156.164z"/>
	</g>
</g>
</svg>
